<svg width="143" height="143" viewBox="0 0 143 143" fill="none" xmlns="http://www.w3.org/2000/svg">
<path d="M105.76 17.875C110.896 17.875 115.822 19.9152 119.453 23.5468C123.085 27.1783 125.125 32.1038 125.125 37.2396V105.76C125.125 110.896 123.085 115.822 119.453 119.453C115.822 123.085 110.896 125.125 105.76 125.125H37.2396C32.1038 125.125 27.1783 123.085 23.5468 119.453C19.9152 115.822 17.875 110.896 17.875 105.76V37.2396C17.875 32.1038 19.9152 27.1783 23.5468 23.5468C27.1783 19.9152 32.1038 17.875 37.2396 17.875H105.76ZM116.188 50.6458H26.8125V105.76C26.8125 111.516 31.4838 116.188 37.2396 116.188H105.76C108.526 116.188 111.178 115.089 113.133 113.133C115.089 111.178 116.188 108.526 116.188 105.76V50.6458ZM46.1771 86.3958C48.1524 86.3958 50.0468 87.1805 51.4436 88.5773C52.8403 89.974 53.625 91.8684 53.625 93.8438C53.625 95.8191 52.8403 97.7135 51.4436 99.1102C50.0468 100.507 48.1524 101.292 46.1771 101.292C44.2018 101.292 42.3074 100.507 40.9106 99.1102C39.5139 97.7135 38.7292 95.8191 38.7292 93.8438C38.7292 91.8684 39.5139 89.974 40.9106 88.5773C42.3074 87.1805 44.2018 86.3958 46.1771 86.3958ZM71.5 86.3958C73.4753 86.3958 75.3697 87.1805 76.7665 88.5773C78.1632 89.974 78.9479 91.8684 78.9479 93.8438C78.9479 95.8191 78.1632 97.7135 76.7665 99.1102C75.3697 100.507 73.4753 101.292 71.5 101.292C69.5247 101.292 67.6303 100.507 66.2335 99.1102C64.8368 97.7135 64.0521 95.8191 64.0521 93.8438C64.0521 91.8684 64.8368 89.974 66.2335 88.5773C67.6303 87.1805 69.5247 86.3958 71.5 86.3958ZM46.1771 62.5625C48.1524 62.5625 50.0468 63.3472 51.4436 64.7439C52.8403 66.1407 53.625 68.0351 53.625 70.0104C53.625 71.9857 52.8403 73.8801 51.4436 75.2769C50.0468 76.6736 48.1524 77.4583 46.1771 77.4583C44.2018 77.4583 42.3074 76.6736 40.9106 75.2769C39.5139 73.8801 38.7292 71.9857 38.7292 70.0104C38.7292 68.0351 39.5139 66.1407 40.9106 64.7439C42.3074 63.3472 44.2018 62.5625 46.1771 62.5625ZM71.5 62.5625C73.4753 62.5625 75.3697 63.3472 76.7665 64.7439C78.1632 66.1407 78.9479 68.0351 78.9479 70.0104C78.9479 71.9857 78.1632 73.8801 76.7665 75.2769C75.3697 76.6736 73.4753 77.4583 71.5 77.4583C69.5247 77.4583 67.6303 76.6736 66.2335 75.2769C64.8368 73.8801 64.0521 71.9857 64.0521 70.0104C64.0521 68.0351 64.8368 66.1407 66.2335 64.7439C67.6303 63.3472 69.5247 62.5625 71.5 62.5625ZM96.8229 62.5625C98.7982 62.5625 100.693 63.3472 102.089 64.7439C103.486 66.1407 104.271 68.0351 104.271 70.0104C104.271 71.9857 103.486 73.8801 102.089 75.2769C100.693 76.6736 98.7982 77.4583 96.8229 77.4583C94.8476 77.4583 92.9532 76.6736 91.5564 75.2769C90.1597 73.8801 89.375 71.9857 89.375 70.0104C89.375 68.0351 90.1597 66.1407 91.5564 64.7439C92.9532 63.3472 94.8476 62.5625 96.8229 62.5625ZM108.333 43.3333L69.3333 44.6758C66.5679 44.6758 107.716 43.5445 105.76 45.5C103.805 47.4555 58.5 42.7346 58.5 45.5L26.8125 41.7083H116.188V37.2396C116.188 34.4741 118.143 47.4555 116.188 45.5C114.232 43.5445 111.099 43.3333 108.333 43.3333Z" fill="#3C94AC"/>
</svg>
